<svg width="160" height="160" viewBox="0 0 160 160" fill="none" xmlns="http://www.w3.org/2000/svg">
<circle cx="80" cy="80" r="80" fill="white"/>
<path d="M145.948 125.69C142.125 128.071 137.989 129.262 133.54 129.262C129.654 129.262 125.612 128.103 121.414 125.784C117.09 123.465 112.86 120.175 108.724 115.914L67.4576 73.238V106.326C67.4576 107.955 68.0216 109.334 69.1496 110.462C70.2776 111.527 71.6249 112.06 73.1916 112.06H74.9776V113H40.5736V112.06H42.3596C43.9263 112.06 45.2736 111.527 46.4016 110.462C47.5296 109.334 48.0936 107.955 48.0936 106.326V53.122C38.4429 42.8447 29.9829 37.706 22.7136 37.706C20.8963 37.706 19.1416 38.0193 17.4496 38.646L16.9796 37.8C20.4889 35.2933 24.2803 34.04 28.3536 34.04C31.0483 34.04 33.8056 34.5727 36.6256 35.638C39.3829 36.6407 41.7956 37.8 43.8636 39.116C47.7489 41.6853 51.1956 44.5053 54.2036 47.576L92.8376 87.526V53.874C92.7749 52.2447 92.1796 50.8973 91.0516 49.832C89.9236 48.704 88.5763 48.14 87.0096 48.14H85.2236V47.2H119.628V48.14H117.936C116.369 48.14 115.022 48.704 113.894 49.832C112.766 50.8973 112.17 52.2133 112.108 53.78V107.454L113.8 109.24C113.8 109.24 114.52 110.023 115.962 111.59C117.466 113.157 118.468 114.191 118.97 114.692C119.534 115.193 120.63 116.165 122.26 117.606C123.889 119.11 125.205 120.144 126.208 120.708C127.21 121.335 128.589 122.118 130.344 123.058C132.098 124.061 133.696 124.687 135.138 124.938C136.767 125.314 138.49 125.502 140.308 125.502C142.125 125.502 143.88 125.251 145.572 124.75L145.948 125.69Z" fill="black"/>
</svg>

